# xmcd
#
# Track frame offsets: 
#        150
#        19745
#        39290
#        57005
#        80977
#        101805
#        125470
#        144375
#        163035
#        184940
#        204055
#        217965
#        236615
#
# Disc length: 3310 seconds
#
# Revision: 6
# Processed by: cddbd v1.5.2PL0 Copyright (c) Steve Scherf et al.
# Submitted via: ExactAudioCopyFreeDBPlugin 1.0
#
DISCID=ad0cec0d
DTITLE=Keb' Mo' - Slow Down
DYEAR=1998
DGENRE=Keb' Mo'
TTITLE0=Muddy Water
TTITLE1=I Was Wrong
TTITLE2=Everything I Need
TTITLE3=Henry
TTITLE4=Soon As I Get Paid
TTITLE5=A Better Man
TTITLE6=I Don't Know
TTITLE7=A Letter To Tracy
TTITLE8=Slow Down
TTITLE9=Rainmaker
TTITLE10=Love In Vain
TTITLE11=God Trying To Get Your Attention
TTITLE12=I'm Telling You Now
EXTD=
EXTT0=
EXTT1=
EXTT2=
EXTT3=
EXTT4=
EXTT5=
EXTT6=
EXTT7=
EXTT8=
EXTT9=
EXTT10=
EXTT11=
EXTT12=
PLAYORDER=
